<svg width="16" height="16" viewBox="0 0 16 16" fill="none" xmlns="http://www.w3.org/2000/svg">
<g id="Instagram 1">
<g id="Group">
<path id="Vector" d="M10.6666 4.66667C10.6666 4.48986 10.7369 4.32029 10.8619 4.19526C10.9869 4.07024 11.1565 4 11.3333 4C11.5101 4 11.6797 4.07024 11.8047 4.19526C11.9297 4.32029 12 4.48986 12 4.66667C12 4.84348 11.9297 5.01305 11.8047 5.13807C11.6797 5.2631 11.5101 5.33333 11.3333 5.33333C11.1565 5.33333 10.9869 5.2631 10.8619 5.13807C10.7369 5.01305 10.6666 4.84348 10.6666 4.66667Z" fill="#636270"/>
<path id="Vector_2" fill-rule="evenodd" clip-rule="evenodd" d="M7.99992 4.83337C7.16007 4.83337 6.35461 5.167 5.76075 5.76087C5.16688 6.35473 4.83325 7.16019 4.83325 8.00004C4.83325 8.83989 5.16688 9.64535 5.76075 10.2392C6.35461 10.8331 7.16007 11.1667 7.99992 11.1667C8.83977 11.1667 9.64523 10.8331 10.2391 10.2392C10.833 9.64535 11.1666 8.83989 11.1666 8.00004C11.1666 7.16019 10.833 6.35473 10.2391 5.76087C9.64523 5.167 8.83977 4.83337 7.99992 4.83337ZM5.83325 8.00004C5.83325 7.42541 6.06153 6.87431 6.46785 6.46798C6.87418 6.06165 7.42528 5.83337 7.99992 5.83337C8.57455 5.83337 9.12565 6.06165 9.53198 6.46798C9.93831 6.87431 10.1666 7.42541 10.1666 8.00004C10.1666 8.57468 9.93831 9.12578 9.53198 9.53211C9.12565 9.93843 8.57455 10.1667 7.99992 10.1667C7.42528 10.1667 6.87418 9.93843 6.46785 9.53211C6.06153 9.12578 5.83325 8.57468 5.83325 8.00004Z" fill="#636270"/>
<path id="Vector_3" fill-rule="evenodd" clip-rule="evenodd" d="M11.5053 1.88865C9.17554 1.63038 6.82438 1.63038 4.49462 1.88865C3.15329 2.03865 2.06996 3.09532 1.91262 4.44332C1.63622 6.80637 1.63622 9.19359 1.91262 11.5566C2.06996 12.9046 3.15262 13.9613 4.49462 14.1113C6.80529 14.3693 9.19462 14.3693 11.5053 14.1113C12.8466 13.9613 13.93 12.9046 14.0873 11.5566C14.3637 9.19359 14.3637 6.80637 14.0873 4.44332C13.93 3.09532 12.8473 2.03865 11.5053 1.88865ZM4.60529 2.88198C6.86149 2.6319 9.13842 2.6319 11.3946 2.88198C12.2813 2.98198 12.9913 3.68132 13.0946 4.55998C13.3619 6.84553 13.3619 9.15444 13.0946 11.44C12.9913 12.3186 12.2813 13.0186 11.3946 13.1173C9.13842 13.3674 6.86149 13.3674 4.60529 13.1173C3.71862 13.0186 3.00862 12.3186 2.90529 11.44C2.63799 9.15444 2.63799 6.84553 2.90529 4.55998C3.00862 3.68132 3.71862 2.98132 4.60529 2.88265V2.88198Z" fill="#636270"/>
</g>
</g>
</svg>
