<svg width="16" height="16" viewBox="0 0 16 16" fill="none" xmlns="http://www.w3.org/2000/svg">
<g clip-path="url(#clip0_6_396)">
<path d="M5.03333 14.5C11.07 14.5 14.3723 9.49801 14.3723 5.16134C14.3723 5.02067 14.369 4.87701 14.3627 4.73634C15.0052 4.27167 15.5596 3.69609 16 3.03667C15.4017 3.30267 14.7667 3.47667 14.116 3.55201C14.8008 3.14153 15.3136 2.49669 15.5593 1.73701C14.915 2.1189 14.2104 2.38831 13.4757 2.53367C12.9807 2.00745 12.3261 1.65898 11.6132 1.54216C10.9002 1.42534 10.1687 1.54667 9.53161 1.8874C8.89456 2.22812 8.38752 2.76925 8.08891 3.42709C7.79031 4.08493 7.71677 4.82284 7.87967 5.52667C6.575 5.46121 5.29865 5.1223 4.13336 4.53193C2.96806 3.94156 1.93984 3.1129 1.11533 2.09967C0.696305 2.82217 0.568091 3.67711 0.756747 4.49074C0.945403 5.30437 1.43677 6.01564 2.131 6.48001C1.60977 6.46349 1.09995 6.32318 0.643667 6.07067V6.11134C0.643231 6.8695 0.905349 7.60442 1.38547 8.19119C1.86559 8.77796 2.53409 9.18036 3.27733 9.33001C2.79463 9.46209 2.28801 9.48137 1.79667 9.38634C2.00644 10.0383 2.41454 10.6086 2.964 11.0175C3.51346 11.4264 4.17688 11.6536 4.86167 11.6673C4.18054 12.2025 3.40049 12.598 2.56623 12.8312C1.73197 13.0643 0.859899 13.1305 0 13.026C1.50191 13.9894 3.24899 14.501 5.03333 14.5Z" fill="#636270"/>
</g>
<defs>
<clipPath id="clip0_6_396">
<rect width="16" height="16" fill="white"/>
</clipPath>
</defs>
</svg>
