<svg width="16" height="16" viewBox="0 0 16 16" fill="none" xmlns="http://www.w3.org/2000/svg">
<g id="YouTube---Negative 1">
<g id="Group">
<path id="Vector" d="M15.8407 4.79995C15.8407 4.79995 15.6843 3.69661 15.203 3.21261C14.5937 2.57495 13.9123 2.57195 13.6 2.53428C11.3627 2.37195 8.00333 2.37195 8.00333 2.37195H7.99667C7.99667 2.37195 4.63767 2.37195 2.4 2.53428C2.08733 2.57195 1.40633 2.57495 0.796667 3.21261C0.316 3.69661 0.162667 4.79995 0.162667 4.79995C0.162667 4.79995 0 6.09662 0 7.39062V8.60295C0 9.89695 0.159333 11.1936 0.159333 11.1936C0.159333 11.1936 0.315667 12.2969 0.793667 12.7813C1.403 13.4186 2.203 13.3969 2.55933 13.4656C3.84067 13.5876 8 13.6249 8 13.6249C8 13.6249 11.3623 13.6186 13.6 13.4593C13.9127 13.4219 14.5937 13.4186 15.2033 12.7813C15.6843 12.2969 15.8407 11.1936 15.8407 11.1936C15.8407 11.1936 16 9.90028 16 8.60328V7.39095C16 6.09728 15.8407 4.80028 15.8407 4.80028V4.79995ZM6.34667 10.0749V5.57828L10.6683 7.83428L6.34667 10.0749Z" fill="#636270"/>
</g>
</g>
</svg>
